HIERARCHY
ROOT Parent
{
	OFFSET 0.000000 0.000000 0.000000
	CHANNELS 6 Xposition Yposition Zposition Xrotation Yrotation Zrotation
	JOINT Enfant
	{
		OFFSET 0.000000 0.000000 1.000000
		CHANNELS 3 Xrotation Yrotation Zrotation
		End Site
		{
			OFFSET 0.000000 0.000000 1.000000
		}
	}
}
MOTION
Frames: 46
Frame Time: 0.041667
0.000000 0.000000 0.000000 -0.000000 0.000000 -0.000000 -0.000000 0.000000 -0.000000 
0.000000 0.000000 0.000000 0.651262 0.000000 -0.000000 -0.000000 0.000000 -0.000000 
0.000000 0.000000 0.000000 2.526922 0.000000 -0.000000 -0.000000 0.000000 -0.000000 
0.000000 0.000000 0.000000 5.526492 0.000000 -0.000000 -0.000000 0.000000 -0.000000 
0.000000 0.000000 0.000000 9.560313 0.000000 -0.000000 -0.000000 0.000000 -0.000000 
0.000000 0.000000 0.000000 14.535602 0.000000 -0.000000 -0.000000 0.000000 -0.000000 
0.000000 0.000000 0.000000 20.343628 0.000000 -0.000000 -0.000000 0.000000 -0.000000 
0.000000 0.000000 0.000000 26.849515 0.000000 -0.000000 -0.000000 0.000000 -0.000000 
0.000000 0.000000 0.000000 33.886604 0.000000 -0.000000 -0.000000 0.000000 -0.000000 
0.000000 0.000000 0.000000 41.257529 0.000000 -0.000000 -0.000000 0.000000 -0.000000 
0.000000 0.000000 0.000000 48.742480 0.000000 -0.000000 -0.000000 0.000000 -0.000000 
0.000000 0.000000 0.000000 56.113419 0.000000 -0.000000 -0.000000 0.000000 -0.000000 
0.000000 0.000000 0.000000 63.150502 0.000000 -0.000000 -0.000000 0.000000 -0.000000 
0.000000 0.000000 0.000000 69.656373 0.000000 -0.000000 -0.000002 0.000000 -0.000000 
0.000000 0.000000 0.000000 75.464417 0.000000 -0.000000 -0.000000 0.000000 -0.000000 
0.000000 0.000000 0.000000 80.439691 0.000000 -0.000000 -0.000000 0.000000 -0.000000 
0.000000 0.000000 0.000000 84.473498 0.000000 -0.000000 0.000000 0.000000 -0.000000 
0.000000 0.000000 0.000000 87.473065 0.000000 -0.000000 -0.000000 0.000000 -0.000000 
0.000000 0.000000 0.000000 89.348751 0.000000 -0.000000 -0.000000 0.000000 -0.000000 
0.000000 0.000000 0.000000 90.000009 0.000000 -0.000000 -0.000000 0.000000 -0.000000 
0.000000 0.000000 0.000000 89.616528 0.000000 -0.000000 -0.000000 0.000000 -0.000000 
0.000000 0.000000 0.000000 88.502620 0.000000 -0.000000 -0.000000 0.000000 -0.000000 
0.000000 0.000000 0.000000 86.710747 0.000000 -0.000000 -0.000000 0.000000 -0.000000 
0.000000 0.000000 0.000000 84.291057 0.000000 -0.000000 -0.000000 0.000000 -0.000000 
0.000000 0.000000 0.000000 81.292160 0.000000 -0.000000 0.000001 0.000000 -0.000000 
0.000000 0.000000 0.000000 77.762291 0.000000 -0.000000 -0.000000 0.000000 -0.000000 
0.000000 0.000000 0.000000 73.750238 0.000000 -0.000000 -0.000000 0.000000 -0.000000 
0.000000 0.000000 0.000000 69.305868 0.000000 -0.000000 -0.000000 0.000000 -0.000000 
0.000000 0.000000 0.000000 64.480537 0.000000 -0.000000 -0.000000 0.000000 -0.000000 
0.000000 0.000000 0.000000 59.326798 0.000000 -0.000000 -0.000000 0.000000 -0.000000 
0.000000 0.000000 0.000000 53.897795 0.000000 -0.000000 -0.000000 0.000000 -0.000000 
0.000000 0.000000 0.000000 48.246107 0.000000 -0.000000 -0.000000 0.000000 -0.000000 
0.000000 0.000000 0.000000 42.422414 0.000000 -0.000000 -0.000000 0.000000 -0.000000 
0.000000 0.000000 0.000000 36.473876 0.000000 -0.000000 -0.000000 0.000000 -0.000000 
0.000000 0.000000 0.000000 30.442563 0.000000 -0.000000 -0.000000 0.000000 -0.000000 
0.000000 0.000000 0.000000 24.364067 0.000000 -0.000000 -0.000000 0.000000 -0.000000 
0.000000 0.000000 0.000000 18.266168 0.000000 -0.000000 -0.000000 0.000000 -0.000000 
0.000000 0.000000 0.000000 12.167977 0.000000 -0.000000 -0.000000 0.000000 -0.000000 
0.000000 0.000000 0.000000 6.079287 0.000000 -0.000000 -0.000000 0.000000 -0.000000 
0.000000 0.000000 0.000000 -0.000000 0.000000 -0.000000 -0.000000 0.000000 -0.000000 
0.000000 0.000000 0.000000 -6.079283 0.000000 -0.000000 -0.000000 0.000000 -0.000000 
0.000000 0.000000 0.000000 -12.167983 0.000000 -0.000000 -0.000000 0.000000 -0.000000 
0.000000 0.000000 0.000000 -18.266168 0.000000 -0.000000 -0.000000 0.000000 -0.000000 
0.000000 0.000000 0.000000 -24.364075 0.000000 -0.000000 -0.000000 0.000000 -0.000000 
0.000000 0.000000 0.000000 -30.442573 0.000000 -0.000000 -0.000000 0.000000 -0.000000 
0.000000 0.000000 0.000000 -36.473876 0.000000 -0.000000 -0.000000 0.000000 -0.000000 
